<?xml version="1.0" standalone="no"?>
<!DOCTYPE svg PUBLIC "-//W3C//DTD SVG 20010904//EN"
 "http://www.w3.org/TR/2001/REC-SVG-20010904/DTD/svg10.dtd">
<svg version="1.0" xmlns="http://www.w3.org/2000/svg"
 width="2560.000000pt" height="1920.000000pt" viewBox="0 0 2560.000000 1920.000000"
 preserveAspectRatio="xMidYMid meet">
<metadata>
Created by potrace 1.16, written by Peter Selinger 2001-2019
</metadata>
<g transform="translate(0.000000,1920.000000) scale(0.100000,-0.100000)"
fill="#000000" stroke="none">
<path d="M2330 19194 c-14 -2 -70 -11 -125 -20 -538 -83 -1064 -354 -1460
-751 -390 -392 -634 -879 -722 -1443 -17 -110 -18 -461 -18 -7755 0 -4202 3
-7669 7 -7705 14 -124 44 -242 98 -391 38 -105 121 -271 153 -310 9 -10 14
-19 10 -19 -3 0 3 -10 14 -22 12 -13 36 -45 55 -73 67 -99 242 -278 342 -350
16 -11 40 -29 55 -41 41 -33 111 -75 111 -67 0 5 4 3 8 -3 10 -16 125 -78 187
-102 28 -10 59 -23 70 -27 11 -5 22 -9 25 -10 3 -1 18 -7 33 -13 15 -7 42 -14
59 -17 17 -3 38 -10 47 -15 19 -10 153 -38 226 -48 28 -3 1010 -8 2182 -9
l2133 -3 2 4939 3 4940 3485 -2614 c1917 -1438 3490 -2613 3497 -2610 6 2
1578 1179 3492 2614 l3481 2611 0 3790 0 3790 -3478 -2608 c-1912 -1434 -3483
-2612 -3490 -2616 -9 -5 -1438 1061 -4340 3237 -2380 1785 -4376 3277 -4437
3317 -221 145 -520 276 -775 340 -233 59 -273 63 -600 66 -168 1 -316 0 -330
-2z"/>
</g>
</svg>
